<svg xmlns="http://www.w3.org/2000/svg" width="24" height="24" viewBox="0 0 24 24" fill="none"><g clip-path="url(#clip0_243_70)"><path d="M20.5796 4.75425H18.4164V3.42396C18.4164 1.5398 16.8769 0.00108337 14.9961 0.00108337H9.0081C7.12643 0.00108337 5.58439 1.5398 5.58439 3.42396V4.75508H3.42371C1.53955 4.75425 0 6.05713 0 7.9388V20.5782C0 22.4599 1.53955 23.9994 3.42371 23.9994H20.5796C22.4613 23.9994 24 22.4599 24 20.5782V7.9388C24 6.05713 22.4613 4.75425 20.5796 4.75425ZM7.41873 3.42396C7.41873 2.5836 8.16774 1.83376 9.0081 1.83376H14.9961C15.8331 1.83376 16.5838 2.58277 16.5838 3.42396V4.75508H7.41873V3.42396ZM17.4997 16.6671H13.8327V20.3341H10.169V16.6671H6.50197V12.085H10.169V8.42126H13.8327V12.0858H17.4997V16.6671Z" fill="#198254"></path></g><defs><clipPath id="clip0_243_70"><rect width="24" height="24" fill="white"></rect></clipPath></defs></svg>