<svg xmlns="http://www.w3.org/2000/svg" width="24" height="24" viewBox="0 0 24 24" fill="none"><g clip-path="url(#clip0_243_75)"><path d="M20.3935 16.8653C22.125 16.8653 23.5273 15.4621 23.5273 13.7316C23.5273 12.001 22.125 10.5974 20.3935 10.5974C18.663 10.5974 17.2598 12.001 17.2598 13.7316C17.2598 15.4621 18.663 16.8653 20.3935 16.8653Z" fill="#198254"></path><path d="M7.53726 3.44646C7.73338 3.52032 7.94423 3.51218 8.15107 3.44899C8.1338 4.16572 8.3479 4.89198 8.8362 5.49136C9.92182 6.8256 11.8846 7.02667 13.2188 5.94064C14.5531 4.85462 14.7542 2.8927 13.6677 1.55799C12.6018 0.247969 10.6947 0.0370628 9.36218 1.05748C9.26941 0.682049 9.05366 0.38744 8.73529 0.267607C8.11164 0.0325788 7.33702 0.554072 7.00634 1.43161C6.67565 2.30962 6.91444 3.21185 7.53726 3.44646Z" fill="#198254"></path><path d="M22.3194 20.3708H18.1452L17.5241 19.249C17.7324 18.7379 17.7792 18.1573 17.6102 17.5874C17.2738 16.4533 16.2079 15.7415 15.0771 15.796C15.3241 15.6221 15.5317 15.3858 15.6581 15.0871C16.0199 14.2325 15.6212 13.2461 14.7661 12.8839L11.6742 11.573L9.78118 9.66027C9.79762 9.59172 9.80416 9.54498 9.79437 9.54498C10.0889 8.54219 9.73938 7.41602 8.84086 6.77386C7.70597 5.96235 6.12804 6.22495 5.3173 7.35979C5.3173 7.35979 3.41533 10.4775 2.48057 11.5459C1.94228 12.1561 1.47944 12.4539 0 13.661V15.7161C0.10334 15.7103 0.221576 15.7034 0.369293 15.6951C0.816464 15.6807 1.45485 15.6598 2.22132 15.6348C2.98774 15.6188 3.88213 15.604 4.84049 15.6106C5.31895 15.6138 5.81452 15.6176 6.31756 15.6209C6.4595 15.6233 6.6031 15.6258 6.74586 15.6286C6.8189 15.5437 6.89858 15.46 6.96827 15.3743C7.49259 14.7522 7.98739 13.9087 8.41415 13.0566L9.51857 14.173C9.67284 14.3288 9.85586 14.4528 10.0577 14.538L13.4549 15.9781C13.6148 16.0459 13.779 16.0786 13.9439 16.0955C12.7016 16.5604 9.57027 17.671 7.73556 17.7752C6.47589 17.7891 3.58335 17.7235 0 17.8256V21.2962V23.728C2.07443 23.7871 5.8827 23.8272 7.94806 23.73C10.4253 23.5385 13.1997 22.3798 14.9171 21.4805L15.6843 22.8656C15.9806 23.4002 16.5435 23.7318 17.1548 23.7318H22.3194C23.2475 23.7318 24 22.9792 24 22.0513C24 21.1232 23.2475 20.3708 22.3194 20.3708Z" fill="#198254"></path></g><defs><clipPath id="clip0_243_75"><rect width="24" height="24" fill="white"></rect></clipPath></defs></svg>