<svg xmlns="http://www.w3.org/2000/svg" width="21" height="21" viewBox="0 0 21 21" fill="none"><g clip-path="url(#clip0_243_66)"><path d="M19.8787 15.4821C18.9415 13.6724 17.4053 12.5215 15.231 12.0507C14.9089 11.981 14.5719 12.0716 14.3192 12.2996L12.5878 13.8141C12.2571 14.1046 11.759 14.1604 11.3719 13.9327C9.45756 12.8338 7.87072 11.3447 6.65261 9.50389C6.40087 9.13199 6.42496 8.63137 6.69382 8.28293L8.09548 6.45894C8.30695 6.1923 8.37607 5.85021 8.28602 5.53316C7.65762 3.37374 6.41161 1.91373 4.54609 1.09322C4.24204 0.962915 3.90248 0.973697 3.60794 1.143C2.70498 1.67153 1.82391 2.25934 1.00466 2.90518C0.692681 3.15501 0.545573 3.55957 0.618179 3.95715C1.33093 7.51348 3.38764 11.2071 6.62315 14.2435C9.85865 17.2798 13.6747 19.0781 17.2697 19.5838C17.6711 19.631 18.0655 19.4585 18.295 19.1313C18.8876 18.2728 19.419 17.3762 19.8885 16.4215C20.0388 16.1168 20.028 15.7773 19.8787 15.4821Z" fill="#198254"></path></g><defs><clipPath id="clip0_243_66"><rect width="20" height="20" fill="white" transform="translate(0 0.634712) rotate(-1.81862)"></rect></clipPath></defs></svg>