<svg xmlns="http://www.w3.org/2000/svg" width="24" height="24" viewBox="0 0 24 24" fill="none"><path d="M8.18434 10.2118C8.41734 10.2118 8.63552 10.327 8.76718 10.5193L10.3123 12.781L13.5098 7.38142C13.6367 7.16703 13.8659 7.05571 14.1171 7.03537C14.3649 7.03537 14.5945 7.16531 14.722 7.37763L16.4257 10.2118H22.4275C22.5436 9.7346 22.6043 9.24336 22.5841 8.74407C22.4686 5.88827 20.4036 3.70108 17.9036 3.19511C15.8504 2.77957 13.9204 3.43112 12.5936 4.69838C12.2563 5.02056 11.7437 5.02056 11.4064 4.69838C10.0797 3.43112 8.14962 2.77957 6.09642 3.19511C3.58805 3.70276 1.53098 5.8993 1.41595 8.74407C1.39574 9.24336 1.4564 9.7346 1.57251 10.2118H8.18434Z" fill="#198254"></path><path d="M16.0266 11.6236C15.7788 11.6236 15.5493 11.494 15.4218 11.2817L14.1217 9.11926L10.9624 14.4541C10.8397 14.6615 10.6191 14.7918 10.3779 14.7994C10.3703 14.8001 10.3627 14.8001 10.3551 14.8001C10.1225 14.8001 9.90429 14.6857 9.77228 14.4927L7.8118 11.6236H2.11438C2.40989 12.1669 2.78765 12.6696 3.23128 13.111C3.16024 13.0403 3.33589 13.2189 10.5107 20.3175C11.3358 21.1339 12.6643 21.1339 13.4895 20.3175C13.4182 20.388 19.1842 14.6873 20.7688 13.111C21.2125 12.6696 21.5902 12.1669 21.8857 11.6236H16.0266Z" fill="#198254"></path></svg>